# xmcd CD database file
#
# Track frame offsets:
#	150
#	21599
#	34216
#	42432
#	51643
#	68544
#	80411
#	89003
#	108051
#	125448
#	137244
#	151285
#	165826
#	178724
#
# Disc length: 2625 seconds
#
# Revision: 0
# Processed by: cddbd v1.5.2PL0 Copyright (c) Steve Scherf et al.
# Submitted via: CDex 1.51
#
DISCID=bb0a3f0e
DTITLE=Swingtrotters - Swingtrotters
DYEAR=2013
DGENRE=Jazz
TTITLE0=Mineur Swing
TTITLE1=Django's Tiger
TTITLE2=Txavolo Swing
TTITLE3=Hungaria
TTITLE4=Bossa Dorado
TTITLE5=Songe d'Automne
TTITLE6=Suite Yugoslav
TTITLE7=Tenor Madness
TTITLE8=Nuages
TTITLE9=Softly
TTITLE10=Douce Ambience
TTITLE11=There will never be another you
TTITLE12=Coquette
TTITLE13=Ojos Negros
EXTD=YEAR: 2013
EXTT0=
EXTT1=
EXTT2=
EXTT3=
EXTT4=
EXTT5=
EXTT6=
EXTT7=
EXTT8=
EXTT9=
EXTT10=
EXTT11=
EXTT12=
EXTT13=
PLAYORDER=
